# xmcd
#
# Track frame offsets:
#   150
#   23525
#   43841
#   66691
#   91423
#   111783
#   125012
#   149204
#   170366
#
# Disc length: 2489 seconds
#
# Revision: 0
# Processed by: cddbd v1.5PL3 Copyright (c) Steve Scherf et al.
# Submitted via: Media_Universe 3.0
#
DISCID=8709b709
DTITLE=JOLEME NAYARADOU - MUSICALEMENT VOTRE 
DYEAR=1900
DGENRE=Dance
TTITLE0=O MON AMOUR
TTITLE1=ANGELO
TTITLE2=JE NE T'AI PAS OUBLIE
TTITLE3=MARIA DES ILES 
TTITLE4=EN SOUVENIR
TTITLE5=J'AI TELLEMENT D'AMOUR POUR TOI
TTITLE6=NE T'EN VAS PAS 
TTITLE7=DEESSES DE LA TERRE
TTITLE8=QUAND JE T'AI VU 
EXTD=
EXTT0=
EXTT1=
EXTT2=
EXTT3=
EXTT4=
EXTT5=
EXTT6=
EXTT7=
EXTT8=
PLAYORDER=
